<svg
   width="1121.0114mm"
   height="353.9631mm"
   viewBox="0 0 1121.0114 353.9631"
   version="1.1"
   xmlns="http://www.w3.org/2000/svg"
>
  <g transform="translate(455.61247,28.574998)">
    <path
       d="M 69093.8,4983.2 H 40747.3 c -947.2,0 -1715.1,767.9 -1715.1,1715.1 v 6603.4 c 0,947.2 767.9,1715.1 1715.1,1715.1 h 28346.5 c 947.2,0 1715.1,-767.9 1715.1,-1715.1 V 6698.3 c 0,-947.2 -767.9,-1715.1 -1715.1,-1715.1"
       fill="#000000"
       fill-opacity="1"
       fill-rule="nonzero"
       stroke="none"
       transform="matrix(0.03527778,0,0,-0.03527778,-1832.5817,501.18431)" />
    <path
       d="m 46796.2,9735.5 c 0,509 284.5,951.6 703.1,1177.5 -19.1,31.5 -264.5,418.7 -856.4,580.7 -135.5,30.5 -272.9,43 -411.7,38.6 -133.4,-4.2 -262.8,-31.4 -390,-70.4 -131.1,-40.2 -257.3,-93.5 -385.3,-141.9 -71.6,-27.1 -143.7,-52.8 -219.7,-66 -69.2,-12 -136.6,-3.3 -203.5,14.5 -103.8,27.5 -201.9,70.4 -301.4,109.6 -114.2,45 -229.3,87.3 -349.8,113.5 -121.9,26.4 -244.5,30.7 -368.3,18.2 -183.6,-18.4 -357.2,-69.7 -521,-153.4 -220.1,-112.5 -400.9,-270.3 -545.8,-468.8 -149,-204.1 -245.3,-431.5 -301.3,-676.4 -48,-210.1 -65.1,-423.1 -55.8,-638.2 27,-624 206.6,-1203.7 518,-1744.8 86.8,-150.8 191.8,-289.6 296.8,-428.2 91.6,-121.1 188,-238.2 301.1,-340.6 77,-69.8 160.6,-130 256.8,-171.3 93.5,-40.2 191,-56.1 292.9,-51 134.3,6.6 258.6,48.5 380.7,99.9 90.6,38.1 180.7,77.9 275.8,104.4 280.3,77.9 554.4,61.6 822.3,-53 85.7,-36.7 170.1,-76.8 259.9,-103.3 144,-42.5 289.9,-56.5 437.8,-22.3 111.8,25.9 210.1,79.4 300.6,148.2 111.3,84.7 205.3,186.5 291.1,295.8 169.5,215.7 326.8,439.5 449.4,685.5 0,0 128.8,245.6 198.4,488.2 -510.6,188.2 -874.7,679 -874.7,1255"
       fill="#ffffff"
       fill-opacity="1"
       fill-rule="nonzero"
       stroke="none"
       transform="matrix(0.03527778,0,0,-0.03527778,-1832.5817,501.18431)" />
    <path
       d="m 45156.6,11666.7 c -22,179.8 -8.1,358.5 41.2,531.2 47.6,166.9 126.2,321 233.5,458.3 107.4,137.3 238,250.8 388.4,337.3 155.7,89.6 325.8,146.2 505.6,168.2 l 17.7,2.2 2.2,-17.8 c 22,-179.8 8.2,-358.5 -41.2,-531.2 -47.6,-166.8 -126.2,-321 -233.5,-458.3 -107.3,-137.3 -238,-250.8 -388.4,-337.3 -155.6,-89.5 -325.7,-146.1 -505.5,-168.1 l -17.8,-2.2 -2.2,17.7"
       fill="#ffffff"
       fill-opacity="1"
       fill-rule="nonzero"
       stroke="none"
       transform="matrix(0.03527778,0,0,-0.03527778,-1832.5817,501.18431)" />
    <path
       d="m 49149.6,11798.6 c 50.3,-8.1 123.7,-9.3 199.3,-9.3 424.6,-1 653.4,235.6 653.4,650.4 2.4,362.3 -202.6,591 -620.5,591 -102.5,0 -179.3,-9.5 -232.2,-20.2 z m -199,1357.2 c 121.6,19.9 265.6,33 421.6,33 283.9,0 487.4,-67.3 621.6,-192.7 137.1,-124.2 217.2,-301.8 217.2,-548.9 0,-251.5 -78.6,-455.1 -220.7,-596.8 -145,-142.8 -382.2,-221.2 -679.3,-221.2 -141.9,0 -259.6,5.6 -360.4,17.1 v 1509.5"
       fill="#ffffff"
       fill-opacity="1"
       fill-rule="nonzero"
       stroke="none"
       transform="matrix(0.03527778,0,0,-0.03527778,-1832.5817,501.18431)" />
    <path
       d="m 50593.3,12190.9 c 0,-241.5 138.4,-423.2 333.7,-423.2 192,0 335.4,179.3 335.4,429.2 0,186.2 -93.8,421.7 -331.8,421.7 -235.1,0 -337.3,-219 -337.3,-427.7 z m 872.9,12.8 c 0,-407.7 -282.8,-586 -547.4,-586 -298.6,0 -529.2,217.6 -529.2,567.1 0,368.3 242.1,583.7 546.6,583.7 316.5,0 530,-229.5 530,-564.8"
       fill="#ffffff"
       fill-opacity="1"
       fill-rule="nonzero"
       stroke="none"
       transform="matrix(0.03527778,0,0,-0.03527778,-1832.5817,501.18431)" />
    <path
       d="m 51781.7,12743.5 147.8,-558.6 c 31.8,-122.9 59.7,-238 81.9,-351.3 h 5.5 c 24.5,110.9 60.9,230.5 98.7,349.7 l 179.8,560.2 h 168.4 l 171.3,-550.5 c 39.3,-130.6 71.7,-247.3 97.2,-359.4 h 5.3 c 20.1,111.5 49.8,227.5 85.5,357.6 l 157.2,552.3 h 197.4 l -355.5,-1100.8 h -181.9 L 52473,12168 c -39.9,123.5 -70.9,233.6 -97.7,362.9 h -4.6 c -27.8,-132.9 -61.9,-247 -100.7,-364.6 l -177,-523.6 h -183.1 l -331.8,1100.8 h 203.6"
       fill="#ffffff"
       fill-opacity="1"
       fill-rule="nonzero"
       stroke="none"
       transform="matrix(0.03527778,0,0,-0.03527778,-1832.5817,501.18431)" />
    <path
       d="m 53378.7,12446.2 c 0,114.9 -3.8,206.1 -9.1,297.3 h 176.9 l 11,-181 h 5.6 c 54.1,103.4 182.2,206 364,206 151.2,0 387.9,-90.9 387.9,-469.1 v -656.7 h -199.2 v 634.7 c 0,178 -67,327 -254.4,327 -131.4,0 -233.9,-93.4 -269.8,-205.5 -8.3,-24.4 -13.7,-59.9 -13.7,-92.8 v -663.4 h -199.2 v 803.5"
       fill="#ffffff"
       fill-opacity="1"
       fill-rule="nonzero"
       stroke="none"
       transform="matrix(0.03527778,0,0,-0.03527778,-1832.5817,501.18431)" />
    <path
       d="m 54641.9,13258.8 h 199.2 v -1616.1 h -199.2 v 1616.1"
       fill="#ffffff"
       fill-opacity="1"
       fill-rule="nonzero"
       stroke="none"
       transform="matrix(0.03527778,0,0,-0.03527778,-1832.5817,501.18431)" />
    <path
       d="m 55302.6,12190.9 c 0,-241.5 138.4,-423.2 333.7,-423.2 192,0 335.4,179.3 335.4,429.2 0,186.2 -93.8,421.7 -331.8,421.7 -235.1,0 -337.3,-219 -337.3,-427.7 z m 872.9,12.8 c 0,-407.7 -282.8,-586 -547.5,-586 -298.5,0 -529.1,217.6 -529.1,567.1 0,368.3 242.1,583.7 546.6,583.7 316.5,0 530,-229.5 530,-564.8"
       fill="#ffffff"
       fill-opacity="1"
       fill-rule="nonzero"
       stroke="none"
       transform="matrix(0.03527778,0,0,-0.03527778,-1832.5817,501.18431)" />
    <path
       d="m 57007.9,12204.8 c -216.7,4.6 -464.7,-34.3 -464.7,-247.2 0,-131.3 86.4,-191.6 186.9,-191.6 144.9,0 236.4,91.2 268.3,184.3 6.9,21.3 9.5,43.9 9.5,63 z m 31.1,-562.1 -17.6,139 h -6 c -60.5,-85.9 -179.2,-164 -336.8,-164 -222.4,0 -336.2,157.8 -336.2,315.8 0,266.7 236.3,413.1 661.5,410.1 v 23.4 c 0,89.5 -25.1,255.2 -250.6,253.9 -102.5,0 -209.6,-30.5 -286.8,-82 l -45.4,133.1 c 91.2,58.8 224.4,96.5 363.3,96.5 336.5,0 418.5,-230 418.5,-450.5 v -411.9 c 0,-94 4.3,-187.8 16.7,-263.4 H 57039"
       fill="#ffffff"
       fill-opacity="1"
       fill-rule="nonzero"
       stroke="none"
       transform="matrix(0.03527778,0,0,-0.03527778,-1832.5817,501.18431)" />
    <path
       d="m 58276.8,12295.6 c 0,26.1 -2.4,59.3 -8.4,85.6 -31.1,126.2 -139.1,230.3 -289.9,230.3 -207.3,0 -331.3,-181.8 -331.3,-423.7 0,-223.5 111.3,-409.2 327.2,-409.2 134,0 255.7,90.5 292.6,240.4 7.1,26.3 9.8,54.5 9.8,85.8 z m 199,963.2 v -1332.2 c 0,-97.8 3.8,-207.9 9.1,-283.9 h -178 l -10.1,190.4 h -5.3 c -61.3,-123 -193.7,-215.4 -373.5,-215.4 -266.7,0 -472.4,225.5 -472.4,559.3 -1.8,367.9 226.6,591.5 494.6,591.5 169,0 282.8,-79.2 332.1,-167 h 4.5 v 657.3 h 199"
       fill="#ffffff"
       fill-opacity="1"
       fill-rule="nonzero"
       stroke="none"
       transform="matrix(0.03527778,0,0,-0.03527778,-1832.5817,501.18431)" />
    <path
       d="m 59415.6,12190.9 c 0,-241.5 138.3,-423.2 333.6,-423.2 192,0 335.5,179.3 335.5,429.2 0,186.2 -93.9,421.7 -331.8,421.7 -235.2,0 -337.3,-219 -337.3,-427.7 z m 872.8,12.8 c 0,-407.7 -282.8,-586 -547.4,-586 -298.6,0 -529.2,217.6 -529.2,567.1 0,368.3 242.2,583.7 546.7,583.7 316.4,0 529.9,-229.5 529.9,-564.8"
       fill="#ffffff"
       fill-opacity="1"
       fill-rule="nonzero"
       stroke="none"
       transform="matrix(0.03527778,0,0,-0.03527778,-1832.5817,501.18431)" />
    <path
       d="m 60541.6,12446.2 c 0,114.9 -3.8,206.1 -9.1,297.3 h 176.9 l 11,-181 h 5.6 c 54.1,103.4 182.2,206 364,206 151.2,0 387.9,-90.9 387.9,-469.1 v -656.7 h -199.1 v 634.7 c 0,178 -67.1,327 -254.5,327 -131.4,0 -233.9,-93.4 -269.7,-205.5 -8.4,-24.4 -13.8,-59.9 -13.8,-92.8 v -663.4 h -199.2 v 803.5"
       fill="#ffffff"
       fill-opacity="1"
       fill-rule="nonzero"
       stroke="none"
       transform="matrix(0.03527778,0,0,-0.03527778,-1832.5817,501.18431)" />
    <path
       d="m 62527.6,13060.4 v -316.9 h 287.7 v -151.6 h -287.7 v -593.3 c 0,-137.1 39.5,-214.6 151.4,-214.6 51.9,0 89.7,6.4 116,14.5 l 9.2,-152.1 c -38.9,-15.3 -101.1,-27.6 -178.9,-27.6 -92,0 -168.4,30.4 -216.1,84.8 -55.1,60.7 -77.7,157.8 -77.7,287.1 v 601.2 H 62161 v 151.6 h 170.5 v 316.9 h 196.1"
       fill="#ffffff"
       fill-opacity="1"
       fill-rule="nonzero"
       stroke="none"
       transform="matrix(0.03527778,0,0,-0.03527778,-1832.5817,501.18431)" />
    <path
       d="m 63040.7,13258.8 h 199.2 v -687.2 h 4.6 c 33.2,56.3 82.8,106.7 143.9,141.4 58.4,34.6 129.1,55.5 205,55.5 148.4,0 383.7,-90.4 383.7,-470.2 v -655.6 h -199.2 v 633.7 c 0,177.7 -67.1,326.8 -254.5,326.8 -131,0 -231.8,-91.5 -270,-199.8 -10.4,-28 -13.5,-58.3 -13.5,-95.4 v -665.3 h -199.2 v 1616.1"
       fill="#ffffff"
       fill-opacity="1"
       fill-rule="nonzero"
       stroke="none"
       transform="matrix(0.03527778,0,0,-0.03527778,-1832.5817,501.18431)" />
    <path
       d="m 65001.9,12301 c 2,126.1 -51.6,324.1 -276.1,324.1 -204.4,0 -291.4,-184.8 -307.4,-324.1 z m -585.9,-144 c 3.9,-270.6 175.7,-382.2 376.7,-382.2 143.3,0 230.9,25.7 304.9,56.4 l 35.1,-142.2 c -70,-32 -192.4,-70.2 -367.3,-70.2 -338.2,0 -541.6,225.4 -541.6,555.6 0,333.6 196.5,594.1 517.9,594.1 359.2,0 453.1,-315 453.1,-517.7 0,-42 -2.4,-72.1 -6.9,-93.8 H 64416"
       fill="#ffffff"
       fill-opacity="1"
       fill-rule="nonzero"
       stroke="none"
       transform="matrix(0.03527778,0,0,-0.03527778,-1832.5817,501.18431)" />
    <path
       d="m 50661.2,8885.5 -299.4,870.3 c -65.6,197.9 -111,378.1 -155.8,551.7 h -10.5 c -43.3,-176.8 -90.6,-361.5 -150,-546.5 l -298,-875.5 z m -993.1,-305.4 -312.5,-950.5 h -405 l 1028.6,3024.2 h 469.7 l 1032.9,-3024.2 h -417.7 l -324,950.5 h -1072"
       fill="#ffffff"
       fill-opacity="1"
       fill-rule="nonzero"
       stroke="none"
       transform="matrix(0.03527778,0,0,-0.03527778,-1832.5817,501.18431)" />
    <path
       d="m 52290,8512.7 c 0,-55.6 5.7,-109.9 17,-160.4 71,-275.8 310.1,-462.9 590.1,-462.9 418.4,0 659.8,343.2 659.8,840.6 0,433 -226.8,805.4 -644.6,805.4 -268.6,0 -522.2,-190.3 -597,-487 -12.9,-50.9 -25.3,-108.4 -25.3,-160.3 z m -392.3,580 c 0,276.6 -7.5,502 -18,706.9 h 352.6 l 21.8,-369.9 h 9 c 157.8,264.7 417.6,419.2 770.2,419.2 525.4,0 921.2,-442.5 921.2,-1101.1 0,-782.1 -478.4,-1167.6 -986.7,-1167.6 -290.2,0 -539.6,126.3 -668.8,341.9 h -9 V 6741.2 h -392.3 v 2351.5"
       fill="#ffffff"
       fill-opacity="1"
       fill-rule="nonzero"
       stroke="none"
       transform="matrix(0.03527778,0,0,-0.03527778,-1832.5817,501.18431)" />
    <path
       d="m 54843,8512.7 c 0,-55.6 5.7,-109.9 17,-160.4 71,-275.8 310.1,-462.9 590.1,-462.9 418.4,0 659.8,343.2 659.8,840.6 0,433 -226.8,805.4 -644.6,805.4 -268.6,0 -522.2,-190.3 -597,-487 -12.9,-50.9 -25.3,-108.4 -25.3,-160.3 z m -392.3,580 c 0,276.6 -7.4,502 -18,706.9 h 352.7 l 21.7,-369.9 h 9 c 157.9,264.7 417.6,419.2 770.2,419.2 525.4,0 921.2,-442.5 921.2,-1101.1 0,-782.1 -478.3,-1167.6 -986.7,-1167.6 -290.1,0 -539.6,126.3 -668.8,341.9 h -9 V 6741.2 h -392.3 v 2351.5"
       fill="#ffffff"
       fill-opacity="1"
       fill-rule="nonzero"
       stroke="none"
       transform="matrix(0.03527778,0,0,-0.03527778,-1832.5817,501.18431)" />
    <path
       d="m 60627.9,10424.3 v -624.7 h 567.1 v -299 h -567.1 V 8331.1 c 0,-270.3 77.9,-423 298.5,-423 102.3,0 176.7,12.5 228.7,28.6 l 18,-299.9 c -76.6,-30.2 -199.2,-54.3 -352.6,-54.3 -181.3,0 -332,59.8 -425.9,167.1 -108.8,119.7 -153.2,311.1 -153.2,566 v 1185 h -336.1 v 299 h 336.1 v 624.7 h 386.5"
       fill="#ffffff"
       fill-opacity="1"
       fill-rule="nonzero"
       stroke="none"
       transform="matrix(0.03527778,0,0,-0.03527778,-1832.5817,501.18431)" />
    <path
       d="m 61856.1,8710.2 c 0,-476 272.7,-834.3 657.8,-834.3 378.4,0 661.2,353.6 661.2,846.1 0,367.1 -185,831.2 -654.1,831.2 -463.5,0 -664.9,-431.6 -664.9,-843 z m 1720.6,25.2 c 0,-803.6 -557.5,-1155.2 -1079.1,-1155.2 -588.5,0 -1043.1,429 -1043.1,1117.9 0,726.2 477.4,1150.8 1077.6,1150.8 623.8,0 1044.6,-452.5 1044.6,-1113.5"
       fill="#ffffff"
       fill-opacity="1"
       fill-rule="nonzero"
       stroke="none"
       transform="matrix(0.03527778,0,0,-0.03527778,-1832.5817,501.18431)" />
    <path
       d="m 64432.1,9397.2 c 101.4,291.2 340.7,405 604.3,405 42.8,0 73.7,-2.7 109.8,-11.1 v -371.2 c -40.3,8.4 -80.1,11.5 -134.3,11.5 -278.1,0 -474.6,-186.3 -528.2,-481.5 -10.2,-55.4 -15.9,-120.1 -15.9,-184.3 v -1136 h -392.7 v 2170 h 357 v -402.4"
       fill="#ffffff"
       fill-opacity="1"
       fill-rule="nonzero"
       stroke="none"
       transform="matrix(0.03527778,0,0,-0.03527778,-1832.5817,501.18431)" />
    <path
       d="m 66874.1,8927.2 c 3.9,248.7 -101.8,638.9 -544.3,638.9 -402.9,0 -574.4,-364.2 -605.9,-638.9 z m -1155,-283.9 c 7.8,-533.4 346.3,-753.3 742.6,-753.3 282.4,0 455.2,50.6 601,111.1 l 70,32.7 -0.8,-313 c -138,-63.1 -379.3,-138.3 -724,-138.3 -666.8,0 -1067.7,444.2 -1067.7,1095.2 0,657.6 387.3,1171.2 1021,1171.2 707.9,0 893.1,-621.1 893.1,-1020.6 0,-82.8 -4.8,-142.1 -13.5,-185 h -1521.7"
       fill="#ffffff"
       fill-opacity="1"
       fill-rule="nonzero"
       stroke="none"
       transform="matrix(0.03527778,0,0,-0.03527778,-1832.5817,501.18431)" />
    <path
       d="m 58857.4,10705.1 c -589,0 -980.3,-349.4 -980.3,-820.1 0,-423.2 306.1,-682.8 799.7,-857.9 408,-152.7 572,-318 572,-598.4 0,-306.3 -234.9,-514.9 -634.3,-514.9 -268.3,0 -523.2,86.7 -697.8,195.9 v -382.8 c 174,-81.2 430.8,-140.3 669.9,-140.3 716.6,0 1058.3,408.2 1058.3,872.1 0,443.4 -258.3,689.6 -771.3,890.8 -417.4,161.3 -601.4,299.8 -601.4,580.6 0,206.1 156.9,452.2 572.3,452.2 272.3,0 474.7,-86.4 571.1,-143.6 v 371.6 c -134.8,53.1 -323.3,94.8 -558.2,94.8"
       fill="#ffffff"
       fill-opacity="1"
       fill-rule="nonzero"
       stroke="none"
       transform="matrix(0.03527778,0,0,-0.03527778,-1832.5817,501.18431)" />
  </g>
</svg>
