<svg
   width="1121.011mm"
   height="353.9631mm"
   viewBox="0 0 1121.011 353.9631"
   version="1.1"
   xmlns="http://www.w3.org/2000/svg"
>
  <path
     d="M 34252.7,4983.2 H 5906.25 c -947.25,0 -1715.14,767.9 -1715.14,1715.1 v 6603.4 c 0,947.2 767.89,1715.1 1715.14,1715.1 H 34252.7 c 947.2,0 1715.1,-767.9 1715.1,-1715.1 V 6698.3 c 0,-947.2 -767.9,-1715.1 -1715.1,-1715.1"
     fill="#000000"
     fill-opacity="1"
     fill-rule="nonzero"
     stroke="none"
     transform="matrix(0.03527778,0,0,-0.03527778,-147.85304,529.75931)" />
  <path
     d="m 10933.9,8887.4 1348.4,778.5 c 257.2,148.5 257.2,519.7 0,668.2 L 10933.9,11112.6 9779.86,10000 10933.9,8887.4"
     fill="#fec107"
     fill-opacity="1"
     fill-rule="nonzero"
     stroke="none"
     transform="matrix(0.03527778,0,0,-0.03527778,-147.85304,529.75931)" />
  <path
     d="M 7500.13,6904.9 10933.9,8887.4 9779.86,10000 6921.42,7244.1 v -5.1 c 0,-297 321.51,-482.6 578.71,-334.1"
     fill="#f34335"
     fill-opacity="1"
     fill-rule="nonzero"
     stroke="none"
     transform="matrix(0.03527778,0,0,-0.03527778,-147.85304,529.75931)" />
  <path
     d="m 10933.9,11112.6 -3433.77,1982.5 c -257.2,148.5 -578.71,-37.1 -578.71,-334.1 v -5.1 L 9779.86,10000 10933.9,11112.6"
     fill="#4caf4f"
     fill-opacity="1"
     fill-rule="nonzero"
     stroke="none"
     transform="matrix(0.03527778,0,0,-0.03527778,-147.85304,529.75931)" />
  <path
     d="M 6921.42,12755.9 V 7244.1 L 9779.86,10000 Z"
     fill="#2197f4"
     fill-opacity="1"
     fill-rule="nonzero"
     stroke="none"
     transform="matrix(0.03527778,0,0,-0.03527778,-147.85304,529.75931)" />
  <path
     d="M 15025.4,9166.8 H 16314 c 0,-678.6 -339.3,-1513.5 -1364.8,-1513.5 -1002.6,0 -1372.4,827.3 -1372.4,1467.8 0,800.5 507,1490.5 1399.1,1490.5 449.8,0 819.6,-209.6 1105.5,-579.4 l -297.3,-244 c -251.6,316.4 -533.7,446 -827.3,446 -468.9,0 -941.6,-354.5 -941.6,-1090.3 0,-705.2 438.4,-1128.4 918.8,-1128.4 354.5,0 773.8,114.4 930.1,773.9 h -838.7 v 377.4"
     fill="#ffffff"
     fill-opacity="1"
     fill-rule="nonzero"
     stroke="none"
     transform="matrix(0.03527778,0,0,-0.03527778,-147.85304,529.75931)" />
  <path
     d="m 22324.6,8675.4 c 0,408.1 -266.8,594.4 -564.2,594.4 -362.2,0 -545.1,-241.7 -545.1,-586.5 0,-380.4 198.2,-594.4 537.5,-594.4 381.2,0 571.8,257.6 571.8,586.5 z m 411.8,-858.2 c 0,-519.1 -217.3,-907.5 -1002.7,-907.5 -442.2,0 -724.3,130.8 -850.1,416.1 l 354.5,126.8 c 99.2,-150.6 236.4,-225.8 533.8,-225.8 297.3,0 556.5,138.6 556.5,558.7 v 201 c -217.3,-210 -419.3,-258.2 -659.5,-258.2 -472.7,0 -853.9,305.1 -853.9,943.1 0,701.4 411.7,959 815.8,959 312.6,0 514.7,-36.7 724.3,-266.5 v 211 h 381.3 V 7817.2"
     fill="#ffffff"
     fill-opacity="1"
     fill-rule="nonzero"
     stroke="none"
     transform="matrix(0.03527778,0,0,-0.03527778,-147.85304,529.75931)" />
  <path
     d="m 23005.2,7725.8 v 2885.8 H 23417 V 7725.8 h -411.8"
     fill="#ffffff"
     fill-opacity="1"
     fill-rule="nonzero"
     stroke="none"
     transform="matrix(0.03527778,0,0,-0.03527778,-147.85304,529.75931)" />
  <path
     d="m 24482.1,9317.5 c -26.2,0 -53.1,-2.5 -79.8,-7.6 -129.5,-24.7 -232.1,-90 -296.6,-188.9 -61.9,-94.9 -83.6,-213.1 -63.4,-343.3 l 867.4,165.2 c -51.2,221.7 -224.3,374.6 -427.6,374.6 z m 29.7,-1591.7 c -209,0 -396.3,70.8 -541.7,204.7 -145.1,133.6 -245.1,327.1 -289.4,559.6 -55.1,289.4 -22.1,547.7 95.4,747 117,198.4 311.2,328.5 561.6,376.2 59.6,11.3 118.1,17.1 174,17.1 226.2,0 419,-90.9 573.1,-270 127.9,-148.8 224.4,-355.2 278.9,-597.2 l 5.2,-22.9 -1273.3,-242.5 c 63.9,-293.3 207.8,-436 439.4,-436 v 0 c 39.4,0 81.9,4.3 126.3,12.8 176,33.5 274.1,142.5 375.2,307.6 l 10.9,17.7 320.3,-158.5 -10.8,-20.6 c -137.7,-263.1 -351.4,-418.9 -653.1,-476.3 -65.2,-12.4 -129.8,-18.7 -192,-18.7"
     fill="#ffffff"
     fill-opacity="1"
     fill-rule="nonzero"
     stroke="none"
     transform="matrix(0.03527778,0,0,-0.03527778,-147.85304,529.75931)" />
  <path
     d="m 27562.2,9243.1 c 343.1,0 533.8,129.6 533.8,453.6 0,358.4 -221.2,465.1 -533.8,465.1 H 27022 V 9243.1 Z M 26572.1,7722 v 2813.4 h 1055 c 602.3,0 911.1,-415.5 911.1,-796.8 0,-598.5 -392.7,-869.1 -930.2,-869.1 h -586 V 7722 h -449.9"
     fill="#ffffff"
     fill-opacity="1"
     fill-rule="nonzero"
     stroke="none"
     transform="matrix(0.03527778,0,0,-0.03527778,-147.85304,529.75931)" />
  <path
     d="m 28821.7,7725.8 v 2885.8 h 411.7 V 7725.8 h -411.7"
     fill="#ffffff"
     fill-opacity="1"
     fill-rule="nonzero"
     stroke="none"
     transform="matrix(0.03527778,0,0,-0.03527778,-147.85304,529.75931)" />
  <path
     d="m 30342.2,8655.9 c -340.1,0 -390.9,-195.5 -390.9,-312 0,-191.1 131,-296.3 368.8,-296.3 381.2,0 422.4,205 422.4,293.1 0,145.4 -104.9,315.2 -400.3,315.2 z m 791.5,-930.1 H 30780 v 181.9 c -103.4,-77.8 -246.1,-181.9 -576.6,-181.9 -398.8,0 -637,235.8 -637,630.7 0,302.9 196,608.6 633.9,608.6 281.1,0 428,-66.4 535.9,-144.4 v 147.5 c 0,132.5 -48.1,308.8 -463.4,308.8 -186.9,0 -316.5,-44.3 -453.7,-91.3 l -48.6,-16.5 -68.5,342.3 17,6.9 c 185.2,75.4 375.7,112 582.2,112 568,0 832.5,-234.5 832.5,-737.9 v -696.8 -469.9"
     fill="#ffffff"
     fill-opacity="1"
     fill-rule="nonzero"
     stroke="none"
     transform="matrix(0.03527778,0,0,-0.03527778,-147.85304,529.75931)" />
  <path
     d="m 31937.5,8118.4 -692.9,1512 h 446 l 479.5,-1107.9 503.4,1107.9 h 453.7 L 31795.7,6935.5 H 31342 l 595.5,1182.9"
     fill="#ffffff"
     fill-opacity="1"
     fill-rule="nonzero"
     stroke="none"
     transform="matrix(0.03527778,0,0,-0.03527778,-147.85304,529.75931)" />
  <path
     d="m 17459.8,9630.4 c -545.9,0 -988.5,-442.6 -988.5,-988.5 0,-546 442.6,-988.6 988.5,-988.6 546,0 988.6,442.6 988.6,988.6 0,545.9 -442.6,988.5 -988.6,988.5 z m 0,-373.8 c 339,0 614.8,-275.7 614.8,-614.7 0,-339 -275.8,-614.8 -614.8,-614.8 -338.9,0 -614.7,275.8 -614.7,614.8 0,339 275.8,614.7 614.7,614.7"
     fill="#ffffff"
     fill-opacity="1"
     fill-rule="nonzero"
     stroke="none"
     transform="matrix(0.03527778,0,0,-0.03527778,-147.85304,529.75931)" />
  <path
     d="m 19653.1,9630.4 c -545.9,0 -988.5,-442.6 -988.5,-988.5 0,-546 442.6,-988.6 988.5,-988.6 546,0 988.6,442.6 988.6,988.6 0,545.9 -442.6,988.5 -988.6,988.5 z m 0,-373.8 c 339,0 614.8,-275.7 614.8,-614.7 0,-339 -275.8,-614.8 -614.8,-614.8 -338.9,0 -614.7,275.8 -614.7,614.8 0,339 275.8,614.7 614.7,614.7"
     fill="#ffffff"
     fill-opacity="1"
     fill-rule="nonzero"
     stroke="none"
     transform="matrix(0.03527778,0,0,-0.03527778,-147.85304,529.75931)" />
  <path
     d="m 14339.7,11654.7 c -227.7,0 -414.4,73.5 -555.2,218.7 -130,132.1 -207.7,319.9 -207.7,502.2 0,192.7 75.3,372.7 212,506.9 136.6,134 319.5,207.8 515.2,207.8 128.2,0 239.3,-19.8 339.8,-60.4 108.3,-44.6 164.8,-82.9 287.7,-195.1 l 17.9,-16.3 -164.9,-162.3 -16.1,14.9 c -59.1,55 -85.4,75.4 -134.3,103.9 -96.6,56.3 -201.3,84.9 -311.2,84.9 -296.4,0 -511.6,-207.2 -511.6,-492.7 0,-118 51.7,-241.3 138.1,-329.8 102.5,-102.5 227.9,-150.3 394.4,-150.3 234.5,0 392.6,101.4 459.2,293.7 h -343.8 v 224.1 h 601.4 v -23 c 0,-150 -6,-205 -47.9,-306.4 -32.7,-85.1 -84.6,-162.7 -154,-229.9 -137.8,-135.6 -288.2,-190.9 -519,-190.9"
     fill="#ffffff"
     fill-opacity="1"
     fill-rule="nonzero"
     stroke="none"
     transform="matrix(0.03527778,0,0,-0.03527778,-147.85304,529.75931)" />
  <path
     d="m 15276.7,11698.7 v 1349.6 h 769.1 v -224 h -547.1 v -279 h 547.1 v -222 h -547.1 v -402.6 h 547.1 v -222 h -769.1"
     fill="#ffffff"
     fill-opacity="1"
     fill-rule="nonzero"
     stroke="none"
     transform="matrix(0.03527778,0,0,-0.03527778,-147.85304,529.75931)" />
  <path
     d="m 16517.3,11698.7 v 1125.6 h -345.5 v 224 h 913 v -224 h -345.5 v -1125.6 h -222"
     fill="#ffffff"
     fill-opacity="1"
     fill-rule="nonzero"
     stroke="none"
     transform="matrix(0.03527778,0,0,-0.03527778,-147.85304,529.75931)" />
  <path
     d="m 17829.7,11698.7 v 1349.6 h 222 v -1349.6 h -222"
     fill="#ffffff"
     fill-opacity="1"
     fill-rule="nonzero"
     stroke="none"
     transform="matrix(0.03527778,0,0,-0.03527778,-147.85304,529.75931)" />
  <path
     d="m 18598.7,11698.7 v 1125.6 h -345.6 v 224 h 913.1 v -224 h -345.6 v -1125.6 h -221.9"
     fill="#ffffff"
     fill-opacity="1"
     fill-rule="nonzero"
     stroke="none"
     transform="matrix(0.03527778,0,0,-0.03527778,-147.85304,529.75931)" />
  <path
     d="m 20556.9,12862 c -276.3,0 -501,-219.1 -501,-488.5 0,-272.7 229.3,-486.4 522,-486.4 268.2,0 494.8,222.8 494.8,486.4 0,278.5 -221.8,488.5 -515.8,488.5 z m 8.4,-1207.3 c -199.6,0 -386.3,75.2 -525.7,211.7 -139.4,136.6 -216.2,319.7 -216.2,515.5 0,390.6 335.6,708.4 748.2,708.4 194.5,0 378.7,-74 518.4,-208.4 140.1,-134.7 217.2,-312.3 217.2,-500 0,-407.8 -325.9,-727.2 -741.9,-727.2"
     fill="#ffffff"
     fill-opacity="1"
     fill-rule="nonzero"
     stroke="none"
     transform="matrix(0.03527778,0,0,-0.03527778,-147.85304,529.75931)" />
  <path
     d="m 21749.5,12614.7 740.1,-913.1 h 224.1 v 1346.7 h -224.1 v -928.4 l -740.1,928.4 h -224.1 v -1346.7 h 224.1 v 913.1"
     fill="#ffffff"
     fill-opacity="1"
     fill-rule="nonzero"
     stroke="none"
     transform="matrix(0.03527778,0,0,-0.03527778,-147.85304,529.75931)" />
  <g transform="translate(459.84583,85.195828)" />
</svg>
