<svg width="141" height="31" viewBox="0 0 141 31" fill="none" xmlns="http://www.w3.org/2000/svg">
    <path d="M50.6329 1.47371C50.6329 1.70473 50.5789 1.93309 50.4753 2.14025L37.5932 27.7297C37.3595 28.1608 37.0648 28.5537 36.7213 28.8972C35.8061 29.8124 34.5395 30.3797 33.141 30.3797C32.1222 30.3797 31.1734 30.0779 30.3803 29.5601C30.0847 29.3681 29.8102 29.1441 29.5606 28.8972C29.1898 28.5255 28.8746 28.0944 28.6321 27.6218L26.1821 22.72C25.8299 22.0146 24.8226 22.0137 24.4667 22.7182L21.9441 27.7297C21.7105 28.1608 21.4148 28.5537 21.0723 28.8972C20.8235 29.145 20.5483 29.3681 20.2527 29.5601C19.4586 30.0779 18.5107 30.3797 17.4919 30.3797C16.0934 30.3797 14.8268 29.8124 13.9116 28.8972C13.5398 28.5255 13.2247 28.0944 12.9831 27.6218L0.094704 1.84723C0.0380559 1.73128 0 1.60383 0 1.47548V1.47371C0 0.660294 0.658532 0 1.47374 0H7.36516C8.3839 0 9.33276 0.301823 10.1276 0.819615C10.4233 1.01169 10.6968 1.23562 10.9455 1.48433C11.3173 1.8552 11.6324 2.28537 11.874 2.75797L16.6333 12.2774C16.9874 12.9837 17.9955 12.9837 18.3488 12.2774L19.6543 9.66633L15.8261 2.01098C15.3659 1.08693 16.0358 0 17.0689 0H23.0151C23.4923 0 23.9542 0.0663895 24.3924 0.190298C25.2368 0.429286 25.9918 0.880688 26.5954 1.48345C26.9672 1.85431 27.2814 2.28446 27.524 2.75716L32.2833 12.2766C32.6355 12.9829 33.6447 12.9829 33.9987 12.2766L35.075 10.1266L38.7589 2.75797C39.1625 1.97027 39.7671 1.30111 40.5053 0.819615C41.3002 0.301823 42.249 0 43.2677 0H49.1592C49.9735 0 50.6329 0.660294 50.6329 1.47371Z" fill="#FAFAFA"/>
    <path d="M57.7113 0.00658417V6.13924H56.9336V0.00658417H57.7113ZM62.1922 2.42886V1.79696H62.9375V6.13924H62.1922V5.52355C61.8033 6.00152 61.293 6.24456 60.6611 6.24456C60.0373 6.24456 59.5188 6.02582 59.1056 5.58025C58.6925 5.13469 58.4899 4.5919 58.4899 3.9357C58.4899 3.2876 58.6925 2.75291 59.1056 2.33165C59.5188 1.90228 60.0373 1.69165 60.6611 1.69165C61.2768 1.69165 61.7871 1.93469 62.1922 2.42886ZM62.2408 3.96C62.2408 3.53063 62.1031 3.15798 61.8276 2.85823C61.5522 2.55848 61.1957 2.40456 60.7502 2.40456C60.3046 2.40456 59.9482 2.55848 59.6808 2.85823C59.4135 3.15798 59.2757 3.53063 59.2757 3.9681C59.2757 4.40557 59.4135 4.77823 59.6808 5.07798C59.9482 5.37772 60.3046 5.53165 60.7502 5.53165C61.1957 5.53165 61.5522 5.37772 61.8276 5.07798C62.1031 4.77823 62.2408 4.40557 62.2408 3.96ZM66.2917 1.69165C66.9074 1.69165 67.4178 1.91038 67.831 2.35595C68.2442 2.79342 68.4548 3.3281 68.4548 3.9681C68.4548 4.6081 68.2442 5.14279 67.831 5.58836C67.4178 6.02582 66.9074 6.24456 66.2836 6.24456C65.6598 6.24456 65.1495 6.00152 64.7606 5.50734V6.13924H63.9829V0.00658417H64.7606V2.45317C65.1576 1.94279 65.6679 1.69165 66.2917 1.69165ZM66.1945 5.51544C66.632 5.51544 66.9885 5.36962 67.2558 5.06988C67.5312 4.77013 67.669 4.39747 67.669 3.96C67.669 3.53063 67.5312 3.16608 67.2558 2.86633C66.9885 2.56658 66.632 2.42076 66.1945 2.42076C65.749 2.42076 65.3925 2.56658 65.1252 2.86633C64.8578 3.16608 64.7282 3.53063 64.7282 3.96C64.7282 4.40557 64.8578 4.77013 65.1252 5.06988C65.3925 5.36962 65.749 5.51544 66.1945 5.51544ZM70.4396 6.23646C69.7915 6.23646 69.1596 5.92051 68.8274 5.29671L69.3864 4.86734C69.6376 5.32912 70.0669 5.55595 70.4639 5.55595C70.9257 5.55595 71.2335 5.28861 71.2335 4.95646C71.2335 4.72962 71.1039 4.54329 70.8366 4.40557C70.7474 4.35696 70.5611 4.27595 70.2938 4.16253C70.0264 4.04912 69.8482 3.9681 69.7591 3.91949C69.3135 3.67646 69.0948 3.3281 69.0948 2.86633C69.0948 2.51798 69.2244 2.22633 69.4836 1.9995C69.7429 1.76456 70.0831 1.65114 70.5125 1.65114C71.0634 1.65114 71.5981 1.88608 71.8897 2.33975L71.3955 2.80962C71.1606 2.47747 70.8528 2.30734 70.4639 2.30734C70.075 2.30734 69.8401 2.54228 69.8401 2.83393C69.8401 3.06076 69.9616 3.23089 70.2047 3.34431L70.6826 3.55494C70.9419 3.66025 71.1363 3.74937 71.2659 3.82228C71.7601 4.07342 72.0031 4.43798 72.0031 4.91595C72.0031 5.28861 71.8573 5.60456 71.5657 5.8557C71.274 6.10684 70.9014 6.23646 70.4396 6.23646Z" fill="white"/>
    <path d="M59.3742 30.3461H56.9438V12.3856H67.9291V14.7431H59.3742V20.0656H66.8354V22.4231H59.3742V30.3461ZM81.6989 23.5897C81.6989 23.7598 81.6746 24.1487 81.626 24.7806H71.2483C71.6372 26.9922 73.0954 28.499 75.8174 28.499C77.3729 28.499 79.1713 27.9157 80.3622 27.0408L81.3587 28.815C80.0706 29.8114 77.9319 30.6378 75.7688 30.6378C70.8594 30.6378 68.8179 27.1623 68.8179 23.7841C68.8179 21.8155 69.4255 20.2114 70.6407 18.9233C71.8802 17.6352 73.46 17.0033 75.4043 17.0033C77.2513 17.0033 78.7582 17.5866 79.9248 18.7775C81.1156 19.9684 81.6989 21.5725 81.6989 23.5897ZM71.2483 22.7633H79.2929C79.1713 20.5031 77.543 19.0692 75.4043 19.0692C73.2655 19.0692 71.6372 20.6003 71.2483 22.7633ZM87.6128 30.6378C85.6685 30.6378 83.7728 29.6899 82.7763 27.8185L84.4533 26.5304C85.2067 27.9157 86.4948 28.5963 87.6857 28.5963C89.071 28.5963 89.9945 27.7942 89.9945 26.7978C89.9945 26.1173 89.6057 25.5583 88.8037 25.1451C88.5363 24.9993 87.9773 24.7563 87.1753 24.416C86.3733 24.0757 85.8386 23.8327 85.5712 23.6869C84.2345 22.9578 83.5783 21.9127 83.5783 20.5274C83.5783 19.4823 83.9672 18.6074 84.7449 17.9269C85.5226 17.2221 86.5434 16.8818 87.8315 16.8818C89.4842 16.8818 91.0882 17.5866 91.9631 18.9476L90.4806 20.3573C89.7758 19.3608 88.8523 18.8504 87.6857 18.8504C86.5191 18.8504 85.8143 19.5552 85.8143 20.4302C85.8143 21.1107 86.1788 21.6211 86.908 21.9613L88.3419 22.5932C89.1196 22.9092 89.7029 23.1765 90.0917 23.3952C91.5743 24.1487 92.3034 25.2423 92.3034 26.6763C92.3034 27.7942 91.8659 28.7421 90.991 29.4955C90.1161 30.2489 88.9981 30.6378 87.6128 30.6378ZM102.03 27.7699L102.905 29.5684C101.957 30.2975 100.815 30.6621 99.4299 30.6621C96.6835 30.6621 95.2739 28.8879 95.2739 25.777V19.3122H92.9649V17.3193H95.2982V12.7016H97.5828V17.3193H102.201V19.3122H97.5828V25.9471C97.5828 27.6727 98.2876 28.5233 99.6972 28.5233C100.451 28.5233 101.228 28.2803 102.03 27.7699ZM105.5 15.4722C104.528 15.4722 103.798 14.7674 103.798 13.7952C103.798 12.8474 104.528 12.1669 105.5 12.1669C106.399 12.1669 107.152 12.896 107.152 13.7952C107.152 14.7674 106.399 15.4722 105.5 15.4722ZM106.618 17.3193V30.3461H104.285V17.3193H106.618ZM114.835 27.0651L118.773 17.3193H121.349L115.613 30.3218H113.985L108.249 17.3193H110.85L114.835 27.0651ZM132.723 19.215V17.3193H134.959V30.3461H132.723V28.499C131.556 29.933 130.025 30.6621 128.13 30.6621C126.258 30.6621 124.703 30.0059 123.463 28.6692C122.224 27.3325 121.616 25.7041 121.616 23.7355C121.616 21.7912 122.224 20.1871 123.463 18.9233C124.703 17.6352 126.258 17.0033 128.13 17.0033C129.977 17.0033 131.508 17.7325 132.723 19.215ZM132.869 23.8084C132.869 22.5203 132.456 21.4023 131.629 20.5031C130.803 19.6038 129.734 19.1421 128.397 19.1421C127.06 19.1421 125.991 19.6038 125.189 20.5031C124.387 21.4023 123.974 22.5203 123.974 23.8327C123.974 25.1451 124.387 26.2631 125.189 27.1623C125.991 28.0616 127.06 28.5233 128.397 28.5233C129.734 28.5233 130.803 28.0616 131.629 27.1623C132.456 26.2631 132.869 25.1451 132.869 23.8084ZM140.428 11.9482V30.3461H138.095V11.9482H140.428Z" fill="white"/>
</svg>